# This file uses centimeters as units for non-parametric coordinates.

g default
v -6.891251 227.057037 -86.949021
v -6.891251 228.116425 -85.889634
v 295.890808 227.057037 -86.949021
v 295.890808 228.116425 -85.889634
v -6.891251 263.013367 -86.949021
v -6.891251 261.953979 -85.889634
v 295.890808 263.013367 -86.949021
v 295.890808 261.953979 -85.889634
v -6.891251 261.953979 -90.127579
v -6.891251 263.013367 -89.068192
v 295.890808 261.953979 -90.127579
v 295.890808 263.013367 -89.068192
v -6.891251 227.057037 -89.068192
v -6.891251 228.116425 -90.127579
v 295.890808 227.057037 -89.068192
v 295.890808 228.116425 -90.127579
vt 0.009932 0.885476
vt 0.885476 0.885476
vt 0.885476 0.983323
vt 0.009932 0.983323
vt 0.114524 0.110842
vt 0.990068 0.110842
vt 0.990068 0.116970
vt 0.114524 0.116970
vt 0.114524 0.107779
vt 0.990068 0.107779
vt 0.990068 0.009932
vt 0.114524 0.009932
vt 0.114524 0.129225
vt 0.990068 0.129225
vt 0.990068 0.123097
vt 0.114524 0.123097
vt 0.009932 0.035728
vt 0.035728 0.009932
vt 0.035728 0.885476
vt 0.009932 0.859680
vt 0.124277 0.242614
vt 0.124277 0.132288
vt 0.117774 0.132288
vt 0.117774 0.242614
vt 0.114524 0.120033
vt 0.990068 0.120033
vt 0.114524 0.107779
vt 0.990068 0.107779
vt 0.114524 0.120033
vt 0.990068 0.120033
vt 0.114524 0.132288
vt 0.990068 0.132288
vt 0.127527 0.135539
vt 0.127527 0.239364
vt 0.114524 0.135539
vt 0.114524 0.239364
vt 0.087330 0.885476
vt 0.087330 0.009932
vt 0.113127 0.035728
vt 0.113127 0.859680
vn 0.000000 0.000000 1.000000
vn 0.000000 0.000000 1.000000
vn 0.000000 0.000000 1.000000
vn 0.000000 0.000000 1.000000
vn 0.000000 1.000000 0.000000
vn 0.000000 1.000000 0.000000
vn 0.000000 1.000000 0.000000
vn 0.000000 1.000000 0.000000
vn 0.000000 0.000000 -1.000000
vn 0.000000 0.000000 -1.000000
vn 0.000000 0.000000 -1.000000
vn 0.000000 0.000000 -1.000000
vn 0.000000 -1.000000 0.000000
vn 0.000000 -1.000000 0.000000
vn 0.000000 -1.000000 0.000000
vn 0.000000 -1.000000 0.000000
vn 1.000000 0.000000 0.000000
vn 1.000000 0.000000 0.000000
vn 1.000000 0.000000 0.000000
vn 1.000000 0.000000 0.000000
vn -1.000000 0.000000 0.000000
vn -1.000000 0.000000 0.000000
vn -1.000000 0.000000 0.000000
vn -1.000000 0.000000 0.000000
vn 0.000000 -0.707113 0.707101
vn 0.000000 -0.707113 0.707101
vn 0.000000 -0.707113 0.707101
vn 0.000000 -0.707113 0.707101
vn 0.000000 0.707104 0.707109
vn 0.000000 0.707104 0.707109
vn 0.000000 0.707104 0.707109
vn 0.000000 0.707104 0.707109
vn 0.000000 0.707104 -0.707109
vn 0.000000 0.707104 -0.707109
vn 0.000000 0.707104 -0.707109
vn 0.000000 0.707104 -0.707109
vn 0.000000 -0.707113 -0.707101
vn 0.000000 -0.707113 -0.707101
vn 0.000000 -0.707113 -0.707101
vn 0.000000 -0.707113 -0.707101
vn -1.000000 0.000000 0.000000
vn -1.000000 0.000000 0.000000
vn -1.000000 0.000000 0.000000
vn -1.000000 0.000000 0.000000
vn 1.000000 0.000000 0.000000
vn 1.000000 0.000000 0.000000
vn 1.000000 0.000000 0.000000
vn 1.000000 0.000000 0.000000
s off
g backrest Bench
f 2/1/1 4/2/2 8/3/3 6/4/4
f 5/5/5 7/6/6 12/7/7 10/8/8
f 9/9/9 11/10/10 16/11/11 14/12/12
f 13/13/13 15/14/14 3/15/15 1/16/16
s 1
f 4/17/17 3/18/18 7/19/19 8/20/20
s 2
f 10/21/21 13/22/22 1/23/23 5/24/24
s off
f 2/25/25 1/16/26 3/15/27 4/26/28
f 5/5/29 6/27/30 8/28/31 7/6/32
f 9/29/33 10/8/34 12/7/35 11/30/36
f 13/13/37 14/31/38 16/32/39 15/14/40
s 2
f 14/33/41 13/22/22 10/21/21 9/34/42
f 5/24/24 1/23/23 2/35/43 6/36/44
s 1
f 12/37/45 15/38/46 16/39/47 11/40/48
f 7/19/19 3/18/18 15/38/46 12/37/45
