# This file uses centimeters as units for non-parametric coordinates.

g default
v -0.001430 -0.000010 4.237291
v 480.649647 0.177291 4.237394
v -1.884536 1694.782104 16.120569
v 492.870846 1694.819458 16.120895
v 0.156991 849.499573 4.249714
v 480.752387 849.607727 4.249864
v 480.799254 1248.771240 4.255216
v 0.227051 1248.693970 4.255187
v 0.185636 1005.001221 4.252105
v 480.771866 1005.096497 4.252231
v 480.850106 1664.996826 4.261458
v 0.303597 1664.953613 4.261339
v 17.549265 1632.717896 -18.258275
v 465.574556 1632.768066 -18.258347
v 345.217517 20.301840 -29.092101
v 345.346034 349.557739 -29.096586
v 12.666202 885.429199 -10.044631
v 471.957742 885.532898 -10.044585
v 480.760991 916.903320 4.250859
v 0.169231 916.800659 4.250777
v 488.996820 943.862427 17.615702
v -11.504126 943.759155 17.615552
v 162.485933 20.232136 -29.092181
v 162.617801 349.515076 -29.096559
v 184.736135 35.616333 -72.146656
v 316.971161 35.668163 -72.146661
v 317.066637 280.378998 -72.146688
v 184.834168 280.347290 -72.146710
v 172.522463 36.151413 -49.142727
v 333.021172 36.213837 -49.142712
v 335.286132 317.930450 -49.142727
v 174.102242 317.892242 -49.142727
vt 0.573423 0.032027
vt 0.425059 0.032027
vt 0.011795 0.592061
vt 0.292540 0.592116
vt 0.292556 0.734465
vt 0.011819 0.734420
vt 0.021938 0.958756
vt 0.283662 0.958785
vt 0.292586 0.977612
vt 0.011864 0.977587
vt 0.019086 0.522210
vt 0.287391 0.522271
vt 0.292534 0.540596
vt 0.011785 0.540536
vt 0.293133 0.004966
vt 0.683383 0.004966
vt 0.299608 0.995034
vt 0.010585 0.995012
vt 0.292469 0.005069
vt 0.292529 0.501284
vt 0.213428 0.209168
vt 0.213353 0.016826
vt 0.433208 0.048306
vt 0.563520 0.048306
vt 0.550489 0.066984
vt 0.443125 0.066984
vt 0.823745 0.021242
vt 0.692876 0.021242
vt 0.701590 0.039919
vt 0.808952 0.039919
vt 0.831913 0.004966
vt 0.683552 0.004966
vt 0.011778 0.501221
vt 0.106683 0.209143
vt 0.011685 0.004966
vt 0.106606 0.016785
vt 0.297345 0.556345
vt 0.004966 0.556285
vt 0.303722 0.013837
vt 0.303722 0.162616
vt 0.315870 0.142785
vt 0.315870 0.013549
vt 0.180554 0.162165
vt 0.180554 0.013373
vt 0.192702 0.013091
vt 0.192702 0.142337
vt 0.293135 0.179319
vt 0.293133 0.005434
vt 0.169967 0.178866
vt 0.169965 0.004966
vt 0.107219 0.004966
vt 0.169307 0.004990
vt 0.169352 0.119890
vt 0.107265 0.119875
vn -0.000010 0.048559 0.998820
vn -0.000010 0.047371 0.998877
vn -0.000005 0.035004 0.999387
vn -0.000005 0.034946 0.999389
vn 0.000000 0.000000 1.000000
vn 0.000000 0.000000 1.000000
vn -0.000000 0.000000 1.000000
vn -0.000000 0.000000 1.000000
vn -0.000001 -0.012123 0.999927
vn -0.000001 -0.010966 0.999940
vn 0.000041 -0.457931 0.888988
vn 0.000042 -0.464371 0.885641
vn -0.000001 -0.003869 0.999993
vn -0.000001 -0.003162 0.999995
vn 0.000092 -0.431211 0.902251
vn 0.000092 -0.432153 0.901800
vn 0.000028 -0.369490 0.929235
vn 0.000028 -0.369490 0.929235
vn -0.239114 0.000040 0.970992
vn -0.239114 0.000040 0.970992
vn -0.239114 0.000040 0.970992
vn -0.239114 0.000040 0.970992
vn 0.000015 -0.066542 0.997784
vn 0.000015 -0.066542 0.997784
vn 0.000015 -0.066542 0.997784
vn 0.000015 -0.066542 0.997784
vn 0.200922 -0.000056 0.979607
vn 0.200922 -0.000056 0.979607
vn 0.200922 -0.000056 0.979607
vn 0.200922 -0.000056 0.979607
vn -0.000085 0.369686 0.929157
vn -0.000085 0.369686 0.929157
vn -0.000002 0.014832 0.999890
vn -0.000003 0.021100 0.999777
vn -0.000319 0.855498 0.517806
vn -0.000319 0.855498 0.517806
vn -0.000319 0.855498 0.517806
vn -0.000319 0.855498 0.517806
vn -0.000345 0.892434 0.451178
vn -0.000341 0.882240 0.470799
vn -0.000390 0.999725 -0.023452
vn -0.000390 0.999725 -0.023452
vn -0.845078 0.003514 0.534632
vn -0.860533 0.003474 0.509383
vn -0.803396 0.003602 0.595434
vn -0.803396 0.003602 0.595434
vn 0.000126 -0.530308 0.847805
vn 0.000126 -0.529985 0.848007
vn 0.000124 -0.522415 0.852691
vn 0.000124 -0.522415 0.852691
vn 0.883249 -0.002536 0.468898
vn 0.886269 -0.002623 0.463164
vn 0.893934 -0.002849 0.448191
vn 0.893934 -0.002849 0.448191
vn -0.000302 0.783234 0.621727
vn -0.000302 0.783234 0.621727
vn -0.874905 0.003431 0.484283
vn -0.874905 0.003431 0.484283
vn 0.000126 -0.535373 0.844616
vn 0.000126 -0.535373 0.844616
vn 0.880703 -0.002464 0.473662
vn 0.880703 -0.002464 0.473662
s 1
g Building3_1face
f 9/3/1 10/4/2 7/5/3 8/6/4
s off
f 25/51/5 26/52/6 27/53/7 28/54/8
s 1
f 13/7/9 14/8/10 11/9/11 12/10/12
f 17/11/13 18/12/14 19/13/15 20/14/16
f 12/10/12 11/9/11 4/17/17 3/18/18
f 8/6/4 7/5/3 14/8/10 13/7/9
s off
f 2/19/19 6/20/20 16/21/21 15/22/22
f 16/21/23 6/20/24 5/33/25 24/34/26
f 5/33/27 1/35/28 23/36/29 24/34/30
s 1
f 5/33/31 6/20/32 18/12/14 17/11/13
f 20/14/16 19/13/15 21/37/33 22/38/34
f 22/38/34 21/37/33 10/4/2 9/3/1
s off
f 15/1/35 23/2/36 1/15/37 2/16/38
s 3
f 29/23/39 30/24/40 26/25/41 25/26/42
s 4
f 30/39/43 31/40/44 27/41/45 26/42/46
s 5
f 31/27/47 32/28/48 28/29/49 27/30/50
s 6
f 32/43/51 29/44/52 25/45/53 28/46/54
s 3
f 23/2/55 15/1/56 30/24/40 29/23/39
s 4
f 16/47/57 31/40/44 30/39/43 15/48/58
s 5
f 16/31/59 24/32/60 32/28/48 31/27/47
s 6
f 24/49/61 23/50/62 29/44/52 32/43/51
