# This file uses centimeters as units for non-parametric coordinates.

g default
v 30.759259 6.096515 603.619019
v 421.202923 -6.389799 465.943695
v 741.005169 -6.212522 146.035370
v 876.275433 6.137719 -290.625244
v 30.759259 1688.361931 606.772034
v 446.286175 1688.392326 468.649261
v 766.020062 1688.429680 148.688751
v 900.801800 1688.394402 -290.625244
v 30.759259 843.139091 603.633057
v 421.450238 843.109795 465.718567
v 741.218792 843.217949 145.784363
v 876.248089 843.161919 -290.625244
v 876.235882 1217.441032 -290.625244
v 741.314251 1217.488274 145.672729
v 421.560833 1217.411003 465.617645
v 30.759259 1217.414421 603.639221
v 30.759259 998.629875 603.635437
v 421.496136 998.611443 465.677124
v 741.258343 998.706718 145.737823
v 876.242962 998.654411 -290.625244
v 99.019268 1017.938652 491.553406
v 338.568768 1017.923515 377.195068
v 338.621991 1198.090080 377.146149
v 99.019757 1198.092888 491.556396
v 650.931683 1018.021721 75.397827
v 762.082074 1017.978813 -252.652283
v 762.075970 1192.300041 -252.652283
v 650.977337 1192.338860 75.343414
v 876.222454 1625.852531 -290.625244
v 741.418499 1625.889519 145.550140
v 421.681439 1625.846306 465.508026
v 30.759259 1625.820915 603.645996
v 30.759076 1602.317986 579.110107
v 390.414959 1602.337273 440.751038
v 710.155194 1602.387444 120.795166
v 844.983075 1602.348503 -290.625244
v 613.079266 13.912041 205.315002
v 613.163006 343.167931 205.217072
v 30.759259 875.149773 590.073608
v 416.166546 875.123222 454.586975
v 730.049115 875.226921 140.539612
v 862.584759 875.172478 -290.625244
v 876.245892 910.459099 -290.625244
v 741.235882 910.513542 145.764740
v 421.470257 910.410881 465.700562
v 30.759259 910.435600 603.634033
v 896.837933 937.417229 -290.625244
v 758.091595 937.472649 153.646881
v 429.457562 937.369377 482.458344
v 30.759320 937.392815 624.073547
v 480.572308 13.842338 331.159698
v 480.668988 343.125267 331.070099
v 467.935589 29.226536 286.203918
v 561.434124 29.278364 192.673004
v 561.496624 273.989189 192.600220
v 468.007855 273.957481 286.137177
v -0.000019 0.000000 0.000000
v 54.033184 8.741785 -54.033875
v 213.698895 1.164958 -213.701782
v 295.068280 1.340359 -295.072388
v -0.000019 1682.601311 0.000000
v 143.961651 1682.601799 -143.963623
v 247.835858 1682.602409 -247.838989
v 295.068280 1682.602654 -295.072327
v -0.000019 852.338860 0.000000
v 85.970257 853.052361 -85.971619
v 214.461346 853.374443 -214.464111
v 295.068280 853.530754 -295.072327
v -0.000019 891.635796 0.000000
v 89.525677 892.248711 -89.526978
v 219.023846 892.542046 -219.026672
v 295.068035 892.678520 -295.072083
v -0.000019 917.019402 0.000000
v 93.633099 917.535454 -93.634521
v 223.590008 917.796318 -223.592834
v 295.068280 917.913322 -295.072327
v -0.000019 940.247490 0.000000
v 102.497052 940.677544 -102.498535
v 228.106366 940.895073 -228.109253
v 295.068280 940.992607 -295.072327
v -0.000019 978.747368 0.000000
v 111.237103 979.091484 -111.238647
v 232.499554 979.265678 -232.502441
v 295.068280 979.343681 -295.072327
v -0.000019 1177.719841 0.000000
v 119.344525 1177.978020 -119.346252
v 236.259930 1178.108879 -236.262878
v 295.068280 1178.167351 -295.072327
v -0.000019 1629.268913 0.000000
v 126.635968 1629.568718 -126.637695
v 239.204754 1629.656364 -239.207825
v 295.068280 1629.695305 -295.072327
v -0.000019 1647.044914 0.000031
v 135.371685 1645.888054 -135.373535
v 243.593182 1645.932121 -243.596191
v 295.068280 1645.951530 -295.072327
v 476.403118 29.761616 312.457977
v 590.713421 29.824036 199.788147
v 587.949261 311.540642 193.689575
v 478.976605 311.502434 312.840546
vt 0.534974 0.501262
vt 0.460716 0.102484
vt 0.413661 0.057795
vt 0.014577 0.302396
vt 0.604687 0.501257
vt 0.107682 0.302424
vt 0.107701 0.366091
vt 0.014594 0.366069
vt 0.604702 0.553689
vt 0.107788 0.302425
vt 0.203253 0.302413
vt 0.203253 0.353142
vt 0.465359 0.335953
vt 0.550120 0.365879
vt 0.532131 0.385073
vt 0.480166 0.360266
vt 0.534312 0.135166
vt 0.449537 0.105225
vt 0.464344 0.129539
vt 0.516320 0.154358
vt 0.500775 0.009932
vt 0.530056 0.104590
vt 0.505292 0.096353
vt 0.481180 0.025190
vt 0.492073 0.430622
vt 0.462805 0.335977
vt 0.443208 0.351234
vt 0.467308 0.422385
vt 0.107804 0.353153
vt 0.107595 0.009983
vt 0.234668 0.013577
vt 0.534974 0.553689
vt 0.009693 0.506772
vt 0.234668 0.257159
vt 0.107668 0.257175
vt 0.114940 0.478101
vt 0.390761 0.060018
vt 0.507106 0.176402
vt 0.123318 0.503138
vt 0.234668 0.478089
vt 0.234668 0.484929
vt 0.107737 0.484940
vt 0.021830 0.478086
vt 0.014626 0.484927
vt 0.017804 0.266460
vt 0.123390 0.750355
vt 0.109195 0.266490
vt 0.107674 0.276759
vt 0.014570 0.276729
vt 0.009693 0.750364
vt 0.392579 0.009932
vt 0.506144 0.123534
vt 0.914695 0.257023
vt 0.963209 0.257050
vt 0.963241 0.384024
vt 0.914733 0.384007
vt 0.412181 0.064436
vt 0.452773 0.104446
vt 0.481636 0.079318
vt 0.426598 0.019139
vt 0.421058 0.032626
vt 0.468276 0.079868
vt 0.248716 0.009932
vt 0.237526 0.229530
vt 0.257183 0.249188
vt 0.556318 0.335261
vt 0.315270 0.307276
vt 0.344873 0.336879
vt 0.248288 0.305741
vt 0.393677 0.354069
vt 0.287897 0.568416
vt 0.237526 0.518044
vt 0.505548 0.466020
vt 0.324241 0.604761
vt 0.552707 0.619731
vt 0.340767 0.621287
vt 0.494371 0.073496
vt 0.427453 0.009932
vt 0.914577 0.503140
vt 0.737492 0.501446
vt 0.123610 0.615151
vt 0.228275 0.615157
vt 0.237374 0.621998
vt 0.123610 0.621991
vt 0.009693 0.759680
vt 0.121853 0.759672
vt 0.123396 0.769941
vt 0.009693 0.769948
vt 0.552377 0.009932
vt 0.552375 0.073602
vt 0.519152 0.066286
vt 0.519154 0.015556
vt 0.554948 0.199919
vt 0.554932 0.136250
vt 0.528645 0.141871
vt 0.528659 0.192600
vt 0.244534 0.640200
vt 0.123610 0.640191
vt 0.123610 0.503138
vt 0.237339 0.503137
vt 0.945595 0.009932
vt 0.945657 0.257129
vt 0.908391 0.111607
vt 0.908367 0.015788
vt 0.125721 0.777786
vt 0.009693 0.777793
vt 0.123404 0.795609
vt 0.009693 0.795614
vt 0.734760 0.500795
vt 0.711080 0.500744
vt 0.711302 0.748750
vt 0.734760 0.748795
vt 0.664615 0.502949
vt 0.673909 0.748656
vt 0.648890 0.500405
vt 0.648890 0.748449
vt 0.648890 0.759885
vt 0.674944 0.760063
vt 0.712630 0.760148
vt 0.734760 0.760188
vt 0.648890 0.767272
vt 0.676139 0.767422
vt 0.713959 0.767498
vt 0.734760 0.767532
vt 0.648890 0.774031
vt 0.678719 0.774157
vt 0.715273 0.774220
vt 0.734760 0.774248
vt 0.234668 0.266474
vt 0.234668 0.276743
vt 0.040340 0.360446
vt 0.040326 0.308016
vt 0.559907 0.364210
vt 0.559908 0.300542
vt 0.592525 0.306161
vt 0.592524 0.358588
vt 0.234668 0.503129
vt 0.106823 0.503140
vt 0.013712 0.503129
vt 0.234668 0.366078
vt 0.090373 0.111656
vt 0.014565 0.257144
vt 0.053749 0.111644
vt 0.014499 0.009932
vt 0.907407 0.011334
vt 0.737492 0.009932
vt 0.737492 0.259068
vt 0.907399 0.256037
vt 0.737492 0.270513
vt 0.903405 0.265395
vt 0.737492 0.277891
vt 0.907399 0.275711
vt 0.737492 0.284638
vt 0.913419 0.283592
vt 0.765553 0.283390
vt 0.881612 0.287246
vt 0.765553 0.323095
vt 0.881611 0.330938
vt 0.737492 0.485979
vt 0.898259 0.477984
vt 0.907392 0.484856
vt 0.737492 0.490731
vt 0.735571 0.499584
vt 0.558995 0.501260
vt 0.648890 0.785236
vt 0.681262 0.785336
vt 0.735516 0.772634
vt 0.747954 0.772650
vt 0.648890 0.843140
vt 0.683622 0.843215
vt 0.736263 0.812162
vt 0.747954 0.812173
vt 0.648890 0.974547
vt 0.685743 0.974635
vt 0.718503 0.974660
vt 0.734760 0.974671
vt 0.648890 0.979720
vt 0.688286 0.979384
vt 0.719780 0.979397
vt 0.734760 0.979402
vt 0.648890 0.990068
vt 0.690786 0.990068
vt 0.721014 0.990068
vt 0.734760 0.990068
vt 0.957632 0.016069
vt 0.956566 0.124733
vt 0.946363 0.110249
vt 0.946339 0.015859
vt 0.966292 0.136932
vt 0.966259 0.009932
vt 0.053722 0.015819
vt 0.234668 0.284588
vt 0.105380 0.284604
vt 0.009693 0.284574
vt 0.234668 0.302409
vt 0.059054 0.102441
vt 0.059165 0.020452
vt 0.066805 0.020296
vt 0.066824 0.091515
vt 0.735571 0.009932
vt 0.559913 0.011706
vt 0.559909 0.255293
vt 0.735571 0.257970
vt 0.563855 0.264608
vt 0.735571 0.269406
vt 0.559908 0.274877
vt 0.735571 0.276793
vt 0.553960 0.282722
vt 0.735571 0.283552
vt 0.735571 0.294756
vt 0.735571 0.352659
vt 0.567045 0.476221
vt 0.735571 0.484064
vt 0.559905 0.483060
vt 0.735571 0.489237
vt 0.442376 0.106973
vt 0.409174 0.073759
vn 0.430856 0.000051 0.902421
vn 0.430856 0.000051 0.902421
vn 0.430856 0.000051 0.902421
vn 0.430856 0.000051 0.902421
vn 0.705753 0.066057 0.705371
vn 0.705754 0.066036 0.705372
vn 0.705807 0.065322 0.705386
vn 0.705792 0.065644 0.705371
vn 0.947127 -0.000058 0.320859
vn 0.947127 -0.000058 0.320859
vn 0.947127 -0.000058 0.320859
vn 0.947127 -0.000058 0.320859
vn 0.332709 0.000069 0.943030
vn 0.332709 0.000069 0.943030
vn 0.332661 0.013957 0.942943
vn 0.332666 0.013143 0.942953
vn 0.707259 0.000007 0.706954
vn 0.707259 0.000007 0.706954
vn 0.707259 0.000007 0.706954
vn 0.707259 0.000007 0.706954
vn 0.955267 -0.000062 0.295746
vn 0.955267 -0.000062 0.295746
vn 0.955194 0.013258 0.295684
vn 0.955187 0.013846 0.295680
vn 0.952833 -0.013536 0.303192
vn 0.952857 -0.011582 0.303200
vn 0.812625 -0.525424 0.252129
vn 0.809466 -0.530711 0.251218
vn 0.707319 0.005499 0.706873
vn 0.707320 -0.005373 0.706873
vn 0.596809 -0.536862 0.596321
vn 0.565771 -0.600286 0.565296
vn 0.345581 -0.010351 0.938332
vn 0.345550 -0.017000 0.938246
vn 0.314194 -0.284529 0.905718
vn 0.309349 -0.340674 0.887832
vn 0.332270 0.001200 0.943183
vn 0.332271 0.000361 0.943184
vn 0.296506 -0.454856 0.839756
vn 0.295093 -0.463345 0.835603
vn 0.707291 0.001144 0.706922
vn 0.707291 0.000921 0.706922
vn 0.636569 -0.436082 0.636092
vn 0.636662 -0.435811 0.636184
vn 0.955589 0.000474 0.294701
vn 0.955589 0.001010 0.294701
vn 0.845442 -0.465505 0.261786
vn 0.848512 -0.459374 0.262683
vn 0.073468 0.980291 0.183393
vn 0.073468 0.980290 0.183393
vn 0.073468 0.980291 0.183393
vn 0.073468 0.980291 0.183393
vn -0.729594 0.000402 0.683880
vn -0.729594 0.000402 0.683880
vn -0.729594 0.000402 0.683880
vn -0.729594 0.000402 0.683880
vn 0.073469 -0.980271 0.183500
vn 0.073469 -0.980271 0.183500
vn 0.073469 -0.980271 0.183500
vn 0.073469 -0.980271 0.183500
vn 0.854076 -0.000010 0.520148
vn 0.854076 -0.000010 0.520148
vn 0.854076 -0.000010 0.520148
vn 0.854076 -0.000010 0.520148
vn 0.176689 0.982628 0.056770
vn 0.176689 0.982628 0.056770
vn 0.176689 0.982628 0.056770
vn 0.176689 0.982628 0.056770
vn 0.315625 0.000011 0.948884
vn 0.315625 0.000011 0.948884
vn 0.315625 0.000011 0.948884
vn 0.315625 0.000011 0.948884
vn 0.227222 -0.971084 0.073250
vn 0.227222 -0.971084 0.073250
vn 0.227222 -0.971084 0.073250
vn 0.227222 -0.971084 0.073250
vn 0.614366 -0.000399 -0.789022
vn 0.614365 -0.000399 -0.789021
vn 0.614365 -0.000399 -0.789022
vn 0.614365 -0.000399 -0.789021
vn 0.892440 -0.357795 0.274835
vn 0.892440 -0.357795 0.274835
vn 0.674933 -0.299362 0.674424
vn 0.674933 -0.299362 0.674424
vn 0.322100 -0.110467 0.940239
vn 0.322100 -0.110467 0.940239
vn 0.344643 0.073990 0.935814
vn 0.344643 0.073990 0.935814
vn 0.949331 0.086729 0.302075
vn 0.949331 0.086728 0.302075
vn 0.420463 0.000162 0.907310
vn 0.420463 0.000162 0.907310
vn 0.420463 0.000162 0.907310
vn 0.420463 0.000162 0.907310
vn 0.698392 -0.101362 0.708502
vn 0.698392 -0.101362 0.708502
vn 0.698392 -0.101362 0.708502
vn 0.698392 -0.101362 0.708502
vn 0.915163 -0.000159 0.403084
vn 0.915163 -0.000159 0.403084
vn 0.915163 -0.000159 0.403084
vn 0.915163 -0.000159 0.403084
vn 0.664873 0.340879 0.664639
vn 0.664873 0.340879 0.664639
vn 0.954852 0.012835 0.296805
vn 0.954918 0.005191 0.296826
vn 0.707236 0.013274 0.706853
vn 0.707241 0.012734 0.706858
vn 0.333818 0.004132 0.942628
vn 0.333786 0.014619 0.942535
vn 0.911861 0.296974 0.283401
vn 0.911861 0.296974 0.283401
vn 0.319039 0.294485 0.900829
vn 0.319039 0.294485 0.900829
vn 0.258195 0.929745 0.262508
vn 0.258195 0.929744 0.262508
vn 0.258195 0.929745 0.262508
vn 0.258195 0.929744 0.262508
vn 0.322728 0.885376 0.334599
vn 0.332514 0.877842 0.344713
vn -0.015397 0.999770 -0.014963
vn -0.015397 0.999770 -0.014963
vn -0.264518 0.009215 0.964337
vn -0.303251 0.008624 0.952872
vn -0.152858 0.010800 0.988189
vn -0.152858 0.010800 0.988189
vn 0.607864 -0.530800 0.590553
vn 0.607931 -0.530753 0.590526
vn 0.616746 -0.524547 0.586919
vn 0.616746 -0.524547 0.586919
vn 0.979536 -0.004325 -0.201225
vn 0.969420 -0.004395 -0.245367
vn 0.939807 -0.004518 -0.341677
vn 0.939807 -0.004518 -0.341677
vn -0.010316 -0.999937 -0.004387
vn -0.010316 -0.999937 -0.004387
vn -0.010316 -0.999937 -0.004387
vn -0.010316 -0.999937 -0.004387
vn 0.004936 -0.999743 -0.022109
vn 0.004936 -0.999743 -0.022109
vn 0.004936 -0.999743 -0.022109
vn 0.004936 -0.999743 -0.022109
vn -0.020335 -0.999781 -0.004905
vn -0.020335 -0.999781 -0.004905
vn -0.020335 -0.999781 -0.004905
vn -0.020335 -0.999781 -0.004905
vn -0.004246 0.999956 -0.008313
vn -0.005247 0.999959 -0.007382
vn -0.005547 0.999959 -0.007102
vn -0.004246 0.999956 -0.008313
vn -0.007488 0.999959 -0.005166
vn -0.007488 0.999959 -0.005166
vn -0.009098 0.999953 -0.003476
vn -0.009098 0.999953 -0.003476
vn -0.707112 0.000000 -0.707102
vn -0.707112 0.000000 -0.707102
vn -0.707112 0.000000 -0.707102
vn -0.707112 0.000000 -0.707102
vn -0.707111 0.000000 -0.707102
vn -0.707111 0.000000 -0.707102
vn -0.707111 0.000000 -0.707102
vn -0.707111 0.000000 -0.707102
vn -0.707112 -0.000000 -0.707102
vn -0.707112 -0.000000 -0.707102
vn -0.707112 0.000000 -0.707102
vn -0.707112 0.000000 -0.707102
vn -0.707112 -0.000001 -0.707101
vn -0.707112 -0.000001 -0.707101
vn -0.707111 0.000000 -0.707103
vn -0.707111 0.000000 -0.707103
vn -0.707112 0.000000 -0.707102
vn -0.707112 -0.000000 -0.707102
vn -0.707112 -0.000001 -0.707102
vn -0.707112 -0.000000 -0.707102
vn -0.707111 -0.000001 -0.707103
vn -0.707111 -0.000001 -0.707103
vn -0.707113 -0.000000 -0.707101
vn -0.707113 0.000000 -0.707101
vn -0.707112 0.000001 -0.707102
vn -0.707112 0.000001 -0.707102
vn -0.707111 -0.000000 -0.707103
vn -0.707111 0.000000 -0.707103
vn -0.707114 0.000002 -0.707100
vn -0.707114 0.000001 -0.707100
vn -0.707112 -0.000000 -0.707102
vn -0.707112 -0.000000 -0.707102
vn -0.707111 -0.000000 -0.707103
vn -0.707111 -0.000000 -0.707103
vn -0.707113 0.000000 -0.707100
vn -0.707114 0.000000 -0.707100
vn -0.707112 0.000000 -0.707102
vn -0.707112 0.000000 -0.707102
vn -0.707111 -0.000000 -0.707103
vn -0.707111 -0.000000 -0.707103
vn -0.707114 0.000000 -0.707100
vn -0.707114 -0.000000 -0.707100
vn -0.707112 0.000000 -0.707102
vn -0.707112 0.000000 -0.707102
vn -0.707111 0.000000 -0.707103
vn -0.707110 0.000000 -0.707103
vn -0.707114 0.000000 -0.707100
vn -0.707114 0.000000 -0.707100
vn -0.707111 -0.000000 -0.707102
vn -0.707112 -0.000000 -0.707102
vn -0.707110 0.000000 -0.707104
vn -0.707111 -0.000001 -0.707103
vn -0.707114 0.000003 -0.707100
vn -0.707114 0.000002 -0.707099
vn -0.707112 0.000000 -0.707102
vn -0.707112 0.000000 -0.707102
vn -0.707112 -0.000002 -0.707102
vn -0.707112 -0.000002 -0.707102
vn -0.707115 0.000000 -0.707099
vn -0.707115 0.000000 -0.707099
vn -0.998704 -0.000000 0.050891
vn -0.998704 -0.000000 0.050891
vn -0.998703 0.000288 0.050915
vn -0.998703 0.000399 0.050923
vn -0.998674 0.000241 0.051484
vn -0.998674 -0.000189 0.051475
vn -0.998586 -0.016831 0.050416
vn -0.998597 -0.015555 0.050613
vn -0.998752 0.001893 0.049900
vn -0.998754 0.000039 0.049899
vn -0.998713 0.002251 0.050673
vn -0.998712 0.002070 0.050691
vn -0.998668 0.001023 0.051587
vn -0.998670 0.000980 0.051557
vn -0.998655 -0.000550 0.051847
vn -0.998654 -0.000088 0.051865
vn -0.998690 -0.006617 0.050734
vn -0.998664 -0.009804 0.050730
vn -0.998711 -0.001618 0.050738
vn -0.998711 -0.001618 0.050738
vn 0.007651 0.000000 -0.999971
vn 0.007651 0.000000 -0.999971
vn 0.007657 0.000061 -0.999971
vn 0.007655 0.000044 -0.999971
vn 0.007744 -0.000032 -0.999970
vn 0.007745 0.000039 -0.999970
vn 0.007605 -0.002364 -0.999968
vn 0.007574 -0.002557 -0.999968
vn 0.007495 0.000008 -0.999972
vn 0.007496 0.000287 -0.999972
vn 0.007621 0.000314 -0.999971
vn 0.007618 0.000342 -0.999971
vn 0.007785 0.000188 -0.999970
vn 0.007791 0.000196 -0.999970
vn 0.007848 -0.000018 -0.999969
vn 0.007844 -0.000120 -0.999969
vn 0.007510 -0.002981 -0.999967
vn 0.007489 -0.002358 -0.999969
vn 0.007471 -0.001851 -0.999970
vn 0.007471 -0.001851 -0.999970
vn 0.461098 0.747879 0.477563
vn 0.461097 0.747879 0.477563
vn -0.339762 0.008048 0.940477
vn -0.339762 0.008048 0.940477
vn 0.601826 -0.534979 0.592961
vn 0.601826 -0.534979 0.592961
vn 0.987907 -0.004243 -0.154992
vn 0.987907 -0.004243 -0.154992
s off
g Building2
f 21/1/1 22/5/2 23/9/3 24/32/4
s 1
f 18/4/5 19/6/6 14/7/7 15/8/8
s off
f 25/10/9 26/11/10 27/12/11 28/29/12
s 2
f 1/33/13 2/39/14 10/46/15 9/50/16
s off
f 53/53/17 54/54/18 55/55/19 56/56/20
s 3
f 3/30/21 4/31/22 12/34/23 11/35/24
s 4
f 35/36/25 36/40/26 29/41/27 30/42/28
s 1
f 34/43/29 35/36/30 30/42/31 31/44/32
s 5
f 33/81/33 34/82/34 31/83/35 32/84/36
s 2
f 39/85/37 40/86/38 45/87/39 46/88/40
s 1
f 40/45/41 41/47/42 44/48/43 45/49/44
s 3
f 41/47/45 42/129/46 43/130/47 44/48/48
s off
f 17/13/49 18/14/50 22/15/51 21/16/52
f 18/4/53 15/8/54 23/131/55 22/132/56
f 15/17/57 16/18/58 24/19/59 23/20/60
f 16/133/61 17/134/62 21/135/63 24/136/64
f 19/21/65 20/22/66 26/23/67 25/24/68
f 20/89/69 13/90/70 27/91/71 26/92/72
f 13/25/73 14/26/74 28/27/75 27/28/76
f 14/93/77 19/94/78 25/95/79 28/96/80
s 4
f 30/42/28 29/41/27 8/137/81 7/138/82
s 1
f 31/44/32 30/42/31 7/138/83 6/139/84
s 5
f 32/84/36 31/83/35 6/97/85 5/98/86
f 16/99/87 15/100/88 34/82/34 33/81/33
s 1
f 15/8/8 14/7/7 35/36/30 34/43/29
s 4
f 14/7/89 13/140/90 36/40/26 35/36/25
s off
f 3/101/91 11/102/92 38/103/93 37/104/94
f 38/141/95 11/35/96 10/142/97 52/143/98
f 10/142/99 2/144/100 51/191/101 52/143/102
s 2
f 9/50/16 10/46/15 40/86/38 39/85/37
s 1
f 10/142/103 11/35/104 41/47/42 40/45/41
s 3
f 11/35/24 12/34/23 42/129/46 41/47/45
f 44/48/48 43/130/47 47/192/105 48/193/106
s 1
f 45/49/44 44/48/43 48/193/107 49/194/108
s 2
f 46/88/40 45/87/39 49/105/109 50/106/110
s 3
f 48/193/106 47/192/105 20/195/111 19/6/112
s 1
f 49/194/108 48/193/107 19/6/6 18/4/5
s 2
f 50/106/110 49/105/109 18/107/113 17/108/114
s off
f 37/2/115 51/3/116 2/51/117 3/52/118
s 7
f 97/57/119 98/58/120 54/216/121 53/217/122
s 8
f 98/185/123 99/186/124 55/187/125 54/188/126
s 9
f 99/59/127 100/60/128 56/61/129 55/62/130
s 10
f 100/196/131 97/197/132 53/198/133 56/199/134
s off
f 2/37/135 1/63/136 57/64/137 58/65/138
f 4/66/139 3/38/140 59/67/141 60/68/142
f 3/38/143 2/37/144 58/65/145 59/67/146
s 11
f 5/69/147 6/70/148 62/71/149 61/72/150
f 6/70/148 7/73/151 63/74/152 62/71/149
f 7/73/151 8/75/153 64/76/154 63/74/152
s 12
f 60/109/155 59/110/156 67/111/157 68/112/158
s 13
f 59/110/159 58/113/160 66/114/161 67/111/162
s 14
f 58/113/163 57/115/164 65/116/165 66/114/166
f 66/114/166 65/116/165 69/117/167 70/118/168
s 13
f 67/111/162 66/114/161 70/118/169 71/119/170
s 12
f 68/112/158 67/111/157 71/119/171 72/120/172
s 14
f 70/118/168 69/117/167 73/121/173 74/122/174
s 13
f 71/119/170 70/118/169 74/122/175 75/123/176
s 12
f 72/120/172 71/119/171 75/123/177 76/124/178
s 14
f 74/122/174 73/121/173 77/125/179 78/126/180
s 13
f 75/123/176 74/122/175 78/126/181 79/127/182
s 12
f 76/124/178 75/123/177 79/127/183 80/128/184
s 14
f 78/126/180 77/125/179 81/165/185 82/166/186
s 13
f 79/127/182 78/126/181 82/166/187 83/167/188
s 12
f 80/128/184 79/127/183 83/167/189 84/168/190
s 14
f 82/166/186 81/165/185 85/169/191 86/170/192
s 13
f 83/167/188 82/166/187 86/170/193 87/171/194
s 12
f 84/168/190 83/167/189 87/171/195 88/172/196
s 14
f 86/170/192 85/169/191 89/173/197 90/174/198
s 13
f 87/171/194 86/170/193 90/174/199 91/175/200
s 12
f 88/172/196 87/171/195 91/175/201 92/176/202
s 14
f 90/174/198 89/173/197 93/177/203 94/178/204
s 13
f 91/175/200 90/174/199 94/178/205 95/179/206
s 12
f 92/176/202 91/175/201 95/179/207 96/180/208
s 14
f 94/178/204 93/177/203 61/181/209 62/182/210
s 13
f 95/179/206 94/178/205 62/182/211 63/183/212
s 12
f 96/180/208 95/179/207 63/183/213 64/184/214
s 15
f 57/200/215 1/201/216 9/202/217 65/203/218
f 65/203/218 9/202/217 39/204/219 69/205/220
f 69/205/220 39/204/219 46/206/221 73/207/222
f 73/207/222 46/206/221 50/208/223 77/209/224
f 77/209/224 50/208/223 17/134/225 81/210/226
f 81/210/226 17/134/225 16/133/227 85/211/228
f 85/211/228 16/133/227 33/212/229 89/213/230
f 89/213/230 33/212/229 32/214/231 93/215/232
f 93/215/232 32/214/231 5/164/233 61/163/234
s 16
f 4/145/235 60/146/236 68/147/237 12/148/238
f 12/148/238 68/147/237 72/149/239 42/150/240
f 42/150/240 72/149/239 76/151/241 43/152/242
f 43/152/242 76/151/241 80/153/243 47/154/244
f 47/154/244 80/153/243 84/155/245 20/156/246
f 20/156/246 84/155/245 88/157/247 13/158/248
f 13/158/248 88/157/247 92/159/249 36/160/250
f 36/160/250 92/159/249 96/162/251 29/161/252
f 29/161/252 96/162/251 64/80/253 8/79/254
s 7
f 51/3/255 37/2/256 98/58/120 97/57/119
s 8
f 38/189/257 99/186/124 98/185/123 37/190/258
s 9
f 38/77/259 52/78/260 100/60/128 99/59/127
s 10
f 52/143/261 51/191/262 97/197/132 100/196/131
