# This file uses centimeters as units for non-parametric coordinates.

g default
v -21.872171 162.948914 -41.203945
v 317.593994 162.948914 -41.203945
v -21.872171 169.778961 -41.203945
v 317.593994 174.081635 -41.203945
v -21.872171 175.040955 -198.696594
v 317.593994 175.040955 -198.696594
v -21.872171 162.948914 -198.696594
v 317.593994 162.948914 -198.696594
v -21.872171 175.040955 -191.620758
v -17.543879 175.040939 -191.573685
v 313.793457 175.040939 -191.573685
v 317.593994 175.040955 -191.620758
v 317.593994 162.948914 -191.620728
v -21.872171 162.948914 -191.620728
v 313.793457 162.948914 -41.203945
v 313.793457 162.948914 -198.696594
v 313.793457 175.040955 -198.743668
v 313.793457 169.778961 -41.203945
v -17.543879 162.948914 -41.203945
v -17.543879 162.948914 -198.696594
v -17.543879 175.040955 -198.743668
v -17.543879 169.778961 -41.203945
v -21.872227 174.081635 -45.754269
v -17.543879 174.081635 -45.754200
v 313.793457 175.040924 -45.754200
v 317.593994 175.040924 -45.754269
v 317.593994 162.948914 -45.754200
v -21.872171 162.948914 -45.754200
v -17.543867 385.909241 -195.170929
v -17.543867 385.909302 -188.095093
v 313.793457 385.909302 -188.095184
v 313.793457 385.909210 -195.171021
v -21.194773 394.061615 -179.674225
v -21.194773 393.856171 -172.601379
v 310.142578 393.856232 -172.601471
v 310.142578 394.061646 -179.674316
v -22.664206 414.841553 -4.062927
v -22.664206 411.760193 -5.140167
v 308.673157 411.760223 -5.140015
v 308.673157 414.841583 -4.062836
v 111.625259 262.295258 -190.229889
v 111.625259 343.541321 -188.826813
v -17.543869 385.909302 -188.095093
v 178.403015 262.295288 -190.229889
v 178.403015 343.541321 -188.826813
v 111.625259 262.254364 -187.862946
v 111.625259 343.500427 -186.459869
v 178.403015 262.254395 -187.862946
v 178.403015 343.500427 -186.459869
vt 0.298942 0.151420
vt 0.298942 0.128567
vt 0.312314 0.128567
vt 0.312314 0.151420
vt 0.312314 0.151420
vt 0.298942 0.151420
vt 0.298942 0.174273
vt 0.312314 0.174273
vt 0.329763 0.133910
vt 0.329763 0.014898
vt 0.484294 0.985102
vt 0.496123 0.830218
vt 0.496496 0.879069
vt 0.496496 0.869514
vt 0.960064 0.869514
vt 0.960064 0.879069
vt 0.023270 0.151420
vt 0.023270 0.128567
vt 0.331850 0.014898
vt 0.484294 0.975071
vt 0.489612 0.975137
vt 0.333183 0.014898
vt 0.331850 0.133910
vt 0.333183 0.133910
vt 0.489612 0.985037
vt 0.484294 0.771058
vt 0.023270 0.151420
vt 0.014671 0.468092
vt 0.489612 0.771058
vt 0.014671 0.975137
vt 0.023270 0.172460
vt 0.014671 0.128567
vt 0.014671 0.149607
vt 0.014671 0.151420
vt 0.501289 0.852140
vt 0.020726 0.975071
vt 0.328246 0.014898
vt 0.328246 0.133910
vt 0.020726 0.985102
vt 0.014671 0.985037
vt 0.014671 0.164328
vt 0.423110 0.014898
vt 0.501289 0.852140
vt 0.014671 0.771058
vt 0.014671 0.771058
vt 0.970094 0.852140
vt 0.964928 0.830218
vt 0.020726 0.771058
vt 0.494044 0.593280
vt 0.962849 0.593280
vt 0.501208 0.593279
vt 0.496100 0.571598
vt 0.959668 0.571598
vt 0.964776 0.593280
vt 0.494044 0.325904
vt 0.957613 0.325904
vt 0.108383 0.018209
vt 0.201810 0.018209
vt 0.201810 0.014898
vt 0.490720 0.771057
vt 0.416536 0.413415
vt 0.439980 0.019209
vt 0.439980 0.014898
vt 0.903548 0.014898
vt 0.903548 0.019209
vt 0.965381 0.869514
vt 0.965381 0.885089
vt 0.490440 0.869514
vt 0.490440 0.879069
vt 0.496496 0.885089
vt 0.490440 0.885089
vt 0.960064 0.886431
vt 0.965381 0.886431
vt 0.617094 0.266627
vt 0.436375 0.325904
vt 0.436375 0.325904
vt 0.436375 0.030881
vt 0.617094 0.152957
vt 0.899943 0.030881
vt 0.710521 0.152957
vt 0.014671 0.128567
vt 0.014671 0.014898
vt 0.108098 0.014898
vt 0.108098 0.128567
vt 0.710521 0.266627
vt 0.899943 0.325904
vt 0.429908 0.413415
vt 0.436660 0.014898
vt 0.375844 0.413415
vt 0.362471 0.413415
vt 0.369045 0.014898
vt 0.382596 0.014898
vt 0.387254 0.428434
vt 0.400621 0.428822
vt 0.346557 0.428822
vt 0.333190 0.428434
vt 0.070771 0.462271
vt 0.068735 0.468094
vt 0.014671 0.468094
vt 0.016706 0.462271
vt 0.318302 0.168521
vt 0.320954 0.014975
vt 0.316480 0.014898
vt 0.313829 0.168444
vt 0.328162 0.014975
vt 0.325511 0.168521
vt 0.321037 0.168444
vt 0.323689 0.014898
vt 0.966489 0.852140
vt 0.490440 0.852140
vt 0.490440 0.869514
vt 0.966489 0.869514
vt 0.108383 0.014898
vt 0.201810 0.021521
vt 0.108383 0.021521
vt 0.108383 0.018209
vt 0.201810 0.018209
vt 0.490720 0.468092
vn 0.000000 0.000000 1.000000
vn 0.000000 0.000000 1.000000
vn 0.000000 0.000000 1.000000
vn 0.000000 0.000000 1.000000
vn -0.000000 0.994907 -0.100798
vn -0.000000 -0.330005 0.943979
vn -0.000000 -0.330005 0.943979
vn -0.000000 0.994889 -0.100976
vn 0.000070 -0.003871 -0.999993
vn -0.000070 -0.003868 -0.999993
vn -0.000070 -0.003868 -0.999993
vn 0.000070 -0.003871 -0.999993
vn 1.000000 -0.000000 0.000000
vn 1.000000 -0.000000 0.000000
vn 1.000000 -0.000003 0.000000
vn 1.000000 -0.000003 0.000000
vn -1.000000 0.000000 0.000000
vn -1.000000 -0.000002 -0.000000
vn -1.000000 -0.000002 -0.000000
vn -1.000000 0.000000 0.000000
vn 0.000001 0.000000 1.000000
vn 0.000001 0.000000 1.000000
vn -0.000002 1.000000 0.000000
vn -0.001430 0.999994 0.003250
vn -0.000002 1.000000 0.000000
vn -0.000002 1.000000 0.000000
vn 0.006189 -0.001946 -0.999979
vn 0.006189 -0.001946 -0.999979
vn -0.001624 0.999394 0.034768
vn -0.017122 0.999640 0.020676
vn 1.000000 0.000000 0.000000
vn 1.000000 0.000000 0.000000
vn -1.000000 -0.000002 -0.000000
vn -1.000000 -0.000002 -0.000000
vn -0.005434 -0.001946 -0.999983
vn -0.005434 -0.001946 -0.999983
vn -0.000032 0.999980 0.006267
vn -0.001428 0.999994 0.003330
vn 0.000002 1.000000 0.000000
vn 0.000002 1.000000 0.000000
vn -0.000033 0.999389 0.034966
vn -0.001428 0.999386 0.035011
vn 0.000000 0.000000 1.000000
vn 0.000000 0.000000 1.000000
vn -0.000006 0.726601 0.687059
vn -0.000986 0.689778 0.724020
vn -0.003734 0.690194 0.723615
vn -0.423358 0.747906 0.511278
vn 1.000000 0.000000 0.000000
vn 1.000000 0.000000 0.000000
vn -1.000000 -0.000003 0.000005
vn -1.000000 -0.000003 0.000005
vn -1.000000 0.000000 -0.000000
vn -0.999628 -0.027264 -0.000396
vn -0.999984 -0.005591 -0.000081
vn -1.000000 0.000000 -0.000000
vn 0.000320 -0.016933 0.999857
vn 0.000369 -0.016881 0.999857
vn 0.000534 -0.016709 0.999860
vn 0.000343 -0.016239 0.999868
vn 0.000257 -0.016028 0.999872
vn -0.000000 0.016940 -0.999857
vn -0.000000 0.016940 -0.999857
vn -0.000000 0.016940 -0.999857
vn -0.000000 0.016940 -0.999857
vn 0.999984 0.005591 0.000081
vn 0.999628 0.027264 0.000396
vn 1.000000 0.000000 0.000000
vn 1.000000 0.000000 0.000000
vn -0.999642 -0.025814 -0.007081
vn -0.948160 -0.317733 -0.006235
vn 0.000000 -0.990752 0.135688
vn 0.000000 -0.889786 0.456379
vn 0.000000 -0.000000 0.000000
vn 0.000000 -0.889786 0.456379
vn 0.000000 -0.989568 0.144067
vn -0.000000 0.885007 -0.465578
vn -0.000000 0.989334 -0.145662
vn -0.000000 0.988124 -0.153659
vn -0.000000 0.885007 -0.465578
vn 0.948161 0.317728 0.006237
vn 0.999642 0.025805 0.007081
vn -0.999891 -0.012960 -0.007104
vn -0.999891 -0.012960 -0.007104
vn 0.000000 -0.994333 0.106309
vn 0.000000 -0.994333 0.106309
vn 0.999891 0.012951 0.007104
vn 0.999891 0.012951 0.007104
vn -0.000339 -0.016270 0.999868
vn -0.000248 -0.016037 0.999871
vn 0.000000 -0.017267 0.999851
vn 0.000000 -0.017267 0.999851
vn 0.000000 -0.017267 0.999851
vn 0.000000 -0.017267 0.999851
vn -0.000309 -0.016928 0.999857
vn -0.000462 -0.016761 0.999860
vn -1.000000 0.000000 0.000000
vn -1.000000 0.000000 0.000000
vn -1.000000 0.000000 0.000000
vn -1.000000 0.000000 0.000000
vn 0.000000 -0.999851 -0.017272
vn 0.000000 -0.999851 -0.017272
vn 0.000000 -0.999851 -0.017272
vn 0.000000 -0.999851 -0.017272
vn 1.000000 -0.000000 0.000000
vn 1.000000 -0.000000 0.000000
vn 1.000000 -0.000000 0.000000
vn 1.000000 -0.000000 0.000000
vn 0.000000 0.999851 0.017272
vn 0.000000 0.999851 0.017272
vn 0.000000 0.999851 0.017272
vn 0.000000 0.999851 0.017272
s 1
g BusStopFrame
f 22/13/1 19/14/2 15/15/3 18/16/4
s 2
f 37/62/5 38/63/6 39/64/7 40/65/8
s 3
f 16/109/9 20/110/10 21/111/11 17/112/12
s 4
f 12/1/13 13/2/14 8/3/15 6/4/16
s 5
f 7/5/17 14/6/18 9/7/19 5/8/20
s 1
f 18/16/4 15/15/3 2/66/21 4/67/22
s 6
f 17/11/23 11/20/24 12/21/25 6/25/26
s 3
f 16/23/9 17/19/12 6/22/27 8/24/28
s 6
f 12/21/25 11/20/24 25/26/29 26/29/30
s 4
f 26/17/31 27/18/32 13/2/14 12/1/13
s 5
f 9/7/19 14/6/18 28/27/33 23/31/34
s 3
f 5/37/35 21/10/11 20/9/10 7/38/36
s 6
f 9/30/37 10/36/38 21/39/39 5/40/40
f 23/45/41 24/48/42 10/36/38 9/30/37
s 1
f 1/68/43 19/14/2 22/13/1 3/69/44
s 6
f 3/69/45 22/13/46 24/70/42 23/71/41
f 25/72/29 24/70/42 22/13/46 18/16/47
f 26/73/30 25/72/29 18/16/47 4/67/48
s 4
f 2/32/49 27/18/32 26/17/31 4/33/50
s 5
f 23/31/34 28/27/33 1/34/51 3/41/52
s 6
f 11/20/24 10/36/38 24/48/42 25/26/29
s 8
f 10/42/53 30/61/54 29/87/55 21/88/56
s 9
f 42/74/57 43/75/58 30/76/59 10/77/60 41/78/61
s off
f 21/28/62 29/44/63 32/60/64 17/118/65
s 10
f 32/89/66 31/90/67 11/91/68 17/92/69
s 8
f 29/87/55 30/61/54 34/93/70 33/94/71
s 11
f 34/12/72 30/35/73 43/43/74 31/46/75 35/47/76
s 2
f 29/51/77 33/52/78 36/53/79 32/54/80
s 10
f 31/90/67 32/89/66 36/95/81 35/96/82
s 8
f 33/94/71 34/93/70 38/97/83 37/98/84
s 11
f 38/49/85 34/12/72 35/47/76 39/50/86
s 2
f 33/52/78 37/55/5 40/56/8 36/53/79
s 10
f 35/96/82 36/95/81 40/99/87 39/100/88
s 9
f 41/78/61 10/77/60 11/79/89 44/80/90
s off
f 47/81/91 46/82/92 48/83/93 49/84/94
s 9
f 43/75/58 42/74/57 45/85/95 31/86/96
f 31/86/96 45/85/95 44/80/90 11/79/89
s off
f 42/101/97 41/102/98 46/103/99 47/104/100
f 41/57/101 44/58/102 48/59/103 46/113/104
f 44/105/105 45/106/106 49/107/107 48/108/108
f 45/114/109 42/115/110 47/116/111 49/117/112
