# This file uses centimeters as units for non-parametric coordinates.

g default
v 38.209171 359.655762 8.785885
v -39.569805 359.655762 7.337080
v 33.438763 379.990631 13.381823
v -34.973869 379.990631 12.107485
v 23.338125 388.539459 23.113047
v -25.242641 388.539459 22.208120
v 10.092979 404.851379 35.873779
v -12.481914 404.851379 35.453270
v 9.672472 404.851379 58.448666
v -12.902421 404.851379 58.028160
v 22.433201 388.539459 71.693810
v -26.147566 388.539459 70.788887
v 32.164429 379.990631 81.794449
v -36.248207 379.990631 80.520111
v 36.760365 359.655762 86.564857
v -41.018612 359.655762 85.116051
v 14.611664 439.701416 -89.167984
v -13.687243 439.701416 -89.695114
v 14.262061 467.614014 -74.280815
v -14.036874 467.614014 -74.807945
v 13.870418 479.577820 -49.372543
v -14.428522 479.577820 -49.899673
v 13.180167 482.441010 -15.002507
v -15.118767 482.441010 -15.529638
v 12.476689 478.845886 16.752520
v -15.660304 478.845886 16.228405
v 12.709414 467.204468 39.700851
v -15.427577 467.204468 39.176739
v 11.910943 444.280945 54.620380
v -16.226036 444.280945 54.096268
v 11.727841 419.571503 56.954739
v -16.409159 419.571503 56.430626
v 12.108799 419.571503 36.503021
v -16.028194 419.571503 35.978909
v 12.670732 434.621887 31.358513
v -15.466249 434.621887 30.834396
v 12.668734 446.174957 21.928425
v -15.468238 446.174957 21.404312
v 11.943245 454.134827 8.739790
v -16.193729 454.134827 8.215676
v 13.119948 455.861938 -15.008907
v -15.178976 455.861938 -15.536037
v 14.111267 454.065491 -39.272980
v -14.187657 454.065491 -39.800110
v 13.933398 443.650665 -52.753929
v -14.365527 443.650665 -53.281059
v 14.106394 429.852448 -62.041916
v -14.192533 429.852448 -62.569046
v 81.279747 0.000000 -132.730606
v -77.340218 0.000000 -135.685257
v 44.344501 65.248398 -109.088699
v -41.311054 65.248398 -110.684227
v 23.602489 144.291855 -95.811928
v -21.077877 144.291855 -96.644203
v 18.875954 364.476074 -92.786514
v -16.467291 364.476074 -93.444862
v 18.875954 400.544617 -92.786514
v -16.467291 400.544617 -93.444862
v 18.448563 400.544617 -69.842026
v -16.894682 400.544617 -70.500366
v 18.448563 364.476074 -69.842026
v -16.894682 364.476074 -70.500366
v 23.047642 144.291855 -66.025017
v -21.632723 144.291855 -66.857292
v 43.280819 65.248398 -51.984997
v -42.374737 65.248398 -53.580521
v 79.309982 0.000000 -26.983961
v -79.309982 0.000000 -29.938610
v 17.677822 370.000000 66.757919
v -21.211666 370.000000 66.033508
v -20.487263 370.000000 27.144024
v 18.402225 370.000000 27.868427
vt 0.119956 0.564272
vt 0.126898 0.534683
vt 0.013722 0.534683
vt 0.020410 0.564272
vt 0.105259 0.576711
vt 0.034569 0.576711
vt 0.085986 0.600446
vt 0.053138 0.600446
vt 0.930269 0.011350
vt 0.817093 0.011350
vt 0.823781 0.040939
vt 0.923328 0.040939
vt 0.837941 0.053379
vt 0.908630 0.053379
vt 0.280846 0.564272
vt 0.273905 0.534683
vt 0.387080 0.534683
vt 0.380393 0.564272
vt 0.295544 0.576711
vt 0.366233 0.576711
vt 0.314817 0.600446
vt 0.347665 0.600446
vt 0.092707 0.643765
vt 0.085221 0.621866
vt 0.055462 0.621866
vt 0.058859 0.657820
vt 0.856509 0.077114
vt 0.889357 0.077114
vt 0.371874 0.092616
vt 0.352601 0.068881
vt 0.423291 0.068881
vt 0.404723 0.092616
vt 0.337904 0.056442
vt 0.437451 0.056442
vt 0.330963 0.026852
vt 0.444138 0.026852
vt 0.675156 0.611872
vt 0.679202 0.668848
vt 0.720379 0.668848
vt 0.726584 0.611872
vt 0.678693 0.709464
vt 0.719870 0.709464
vt 0.313251 0.278318
vt 0.312568 0.234910
vt 0.361886 0.233991
vt 0.362568 0.277400
vt 0.311366 0.175012
vt 0.360683 0.174094
vt 0.368200 0.183346
vt 0.409142 0.183346
vt 0.367038 0.149990
vt 0.407980 0.149990
vt 0.366772 0.114035
vt 0.407713 0.114035
vt 0.851349 0.098533
vt 0.852166 0.120433
vt 0.893108 0.120433
vt 0.892291 0.098533
vt 0.106429 0.660576
vt 0.080568 0.691176
vt 0.125619 0.672158
vt 0.113960 0.708115
vt 0.160180 0.674672
vt 0.160171 0.713346
vt 0.195487 0.672058
vt 0.210183 0.709180
vt 0.215103 0.656903
vt 0.246426 0.691772
vt 0.228618 0.636825
vt 0.268089 0.651156
vt 0.354235 0.643765
vt 0.320387 0.657820
vt 0.316990 0.621866
vt 0.346749 0.621866
vt 0.367957 0.660576
vt 0.342096 0.691176
vt 0.387148 0.672158
vt 0.375488 0.708115
vt 0.421704 0.674672
vt 0.421695 0.713346
vt 0.457011 0.672058
vt 0.471706 0.709180
vt 0.476627 0.656903
vt 0.507950 0.691772
vt 0.529612 0.651156
vt 0.490141 0.636825
vt 0.501491 0.594180
vt 0.534878 0.594180
vt 0.181137 0.011350
vt 0.215539 0.106293
vt 0.298630 0.106293
vt 0.335008 0.011350
vt 0.234857 0.221308
vt 0.278200 0.221308
vt 0.240158 0.541697
vt 0.273545 0.541697
vt 0.240158 0.594180
vt 0.273545 0.594180
vt 0.475508 0.106293
vt 0.439129 0.011350
vt 0.852163 0.137244
vt 0.893105 0.137244
vt 0.851108 0.148826
vt 0.892050 0.148826
vt 0.415408 0.081355
vt 0.417139 0.121882
vt 0.850230 0.815799
vt 0.891408 0.815799
vt 0.849971 0.800645
vt 0.891149 0.800645
vt 0.850223 0.780567
vt 0.891401 0.780567
vt 0.593000 0.011350
vt 0.558599 0.106293
vt 0.495937 0.221308
vt 0.539280 0.221308
vt 0.501491 0.541697
vt 0.534878 0.541697
vt 0.310422 0.119667
vt 0.359457 0.118753
vt 0.310827 0.079674
vt 0.359863 0.078761
vt 0.465426 0.120983
vt 0.463418 0.080460
vt 0.418831 0.163284
vt 0.467117 0.162385
vt 0.586581 0.029042
vt 0.639006 0.123985
vt 0.763643 0.123985
vt 0.817387 0.029042
vt 0.668448 0.239000
vt 0.733462 0.239000
vt 0.675156 0.559389
vt 0.726584 0.559389
vt 0.846291 0.737922
vt 0.846291 0.685439
vt 0.897719 0.685439
vt 0.897719 0.737922
vt 0.839397 0.365050
vt 0.904411 0.365050
vt 0.809215 0.250035
vt 0.933852 0.250035
vt 0.755471 0.155092
vt 0.986278 0.155092
vt 0.013722 0.043867
vt 0.015905 0.161061
vt 0.191695 0.157786
vt 0.189512 0.040593
vt 0.013722 0.161143
vt 0.040800 0.187231
vt 0.093966 0.186241
vt 0.120053 0.159163
vt 0.015703 0.267475
vt 0.041790 0.240397
vt 0.094956 0.239406
vt 0.122034 0.265494
vt 0.985108 0.111015
vt 0.983872 0.044658
vt 0.917515 0.045894
vt 0.918751 0.112251
vn 0.018149 0.224465 -0.974313
vn 0.018149 0.224465 -0.974313
vn 0.017480 0.345054 -0.938420
vn 0.017480 0.345055 -0.938420
vn 0.012944 0.718972 -0.694919
vn 0.012944 0.718972 -0.694919
vn 0.014562 0.623398 -0.781769
vn 0.014562 0.623398 -0.781769
vn -0.014562 0.623397 0.781770
vn -0.012944 0.718972 0.694919
vn -0.012944 0.718972 0.694919
vn -0.014562 0.623397 0.781770
vn -0.017480 0.345054 0.938420
vn -0.017480 0.345054 0.938420
vn -0.018149 0.224465 0.974313
vn -0.018149 0.224465 0.974313
vn -0.938420 0.345055 -0.017480
vn -0.974313 0.224464 -0.018149
vn -0.974313 0.224465 -0.018149
vn -0.938420 0.345055 -0.017480
vn -0.694918 0.718973 -0.012945
vn -0.694918 0.718973 -0.012945
vn -0.781769 0.623398 -0.014562
vn -0.781769 0.623398 -0.014562
vn 0.938420 0.345055 0.017480
vn 0.974313 0.224465 0.018149
vn 0.974313 0.224465 0.018149
vn 0.938420 0.345055 0.017480
vn 0.694918 0.718973 0.012945
vn 0.694918 0.718973 0.012945
vn 0.781769 0.623398 0.014562
vn 0.781769 0.623398 0.014562
vn 0.018542 0.094005 -0.995399
vn 0.018024 0.251865 -0.967595
vn 0.018034 0.249684 -0.968160
vn 0.018542 0.094005 -0.995399
vn 0.013182 0.706426 -0.707664
vn 0.013181 0.706474 -0.707616
vn 0.004520 0.970107 -0.242635
vn 0.004517 0.970140 -0.242503
vn -0.000203 0.999940 0.010920
vn -0.000201 0.999942 0.010769
vn -0.004965 0.963814 0.266530
vn -0.005015 0.963064 0.269226
vn -0.012547 0.738994 0.673595
vn -0.012563 0.738232 0.674430
vn -0.017521 0.339017 0.940617
vn -0.017497 0.342641 0.939303
vn -0.018541 0.094173 0.995383
vn -0.018541 0.094173 0.995383
vn 0.017619 -0.323984 -0.945899
vn 0.016340 -0.479812 -0.877219
vn 0.016322 -0.481548 -0.876268
vn 0.017619 -0.323984 -0.945899
vn 0.012113 -0.759575 -0.650307
vn 0.012230 -0.754180 -0.656554
vn 0.004666 -0.968107 -0.250492
vn 0.004759 -0.966797 -0.255501
vn -0.000009 -1.000000 0.000472
vn -0.000052 -0.999996 0.002787
vn -0.005736 -0.951383 0.307958
vn -0.005726 -0.951555 0.307424
vn -0.013585 -0.684034 0.729324
vn -0.013552 -0.685920 0.727551
vn -0.017390 -0.357983 0.933566
vn -0.017402 -0.356256 0.934226
vn -0.999630 0.009666 -0.025414
vn -0.999491 0.013272 -0.029015
vn -0.999491 0.013272 -0.029015
vn -0.999628 0.009734 -0.025482
vn -0.999996 0.002628 0.001173
vn -0.999995 0.002493 0.001906
vn -0.999957 0.008242 -0.004357
vn -0.999960 0.008076 -0.003865
vn -0.999624 0.002975 -0.027266
vn -0.999624 0.002859 -0.027273
vn -0.999833 -0.005444 -0.017458
vn -0.999851 -0.005118 -0.016464
vn -0.999924 -0.001601 -0.012254
vn -0.999930 -0.001580 -0.011742
vn -0.999070 0.041924 -0.010099
vn -0.999061 0.042138 -0.010058
vn 0.999630 -0.009666 0.025414
vn 0.999628 -0.009733 0.025481
vn 0.999491 -0.013271 0.029015
vn 0.999491 -0.013271 0.029015
vn 0.999996 -0.002628 -0.001173
vn 0.999995 -0.002494 -0.001906
vn 0.999932 -0.008758 0.007655
vn 0.999938 -0.008584 0.007112
vn 0.999543 -0.003408 0.030036
vn 0.999544 -0.003288 0.030016
vn 0.999833 0.005443 0.017458
vn 0.999851 0.005118 0.016464
vn 0.999924 0.001601 0.012254
vn 0.999930 0.001580 0.011742
vn 0.997463 0.064122 0.030930
vn 0.997486 0.063795 0.030865
vn 0.992167 0.117776 0.041648
vn 0.992167 0.117776 0.041648
vn 0.017451 0.349329 -0.936838
vn 0.017768 0.299657 -0.953882
vn 0.017768 0.299657 -0.953882
vn 0.017451 0.349329 -0.936838
vn 0.018566 0.078521 -0.996740
vn 0.018566 0.078521 -0.996740
vn 0.018623 0.012371 -0.999750
vn 0.018623 0.012371 -0.999750
vn 0.018624 0.000000 -0.999827
vn 0.018624 0.000000 -0.999827
vn -0.018624 0.000000 0.999827
vn -0.018622 0.014825 0.999717
vn -0.018622 0.014825 0.999717
vn -0.018624 0.000000 0.999827
vn -0.018564 0.080168 0.996609
vn -0.018564 0.080168 0.996609
vn -0.017768 0.299657 0.953882
vn -0.017768 0.299657 0.953882
vn -0.017451 0.349329 0.936837
vn -0.017451 0.349329 0.936837
vn 0.000000 -1.000000 0.000000
vn 0.000000 -1.000000 0.000000
vn 0.000000 -1.000000 0.000000
vn 0.000000 -1.000000 0.000000
vn -0.872643 0.488088 -0.016255
vn -0.907746 0.419180 -0.016909
vn -0.907746 0.419180 -0.016909
vn -0.872643 0.488088 -0.016255
vn -0.993174 0.115169 -0.018500
vn -0.993185 0.115068 -0.018500
vn -0.999654 0.018582 -0.018621
vn -0.999654 0.018578 -0.018621
vn -0.999827 0.000000 -0.018624
vn -0.999827 0.000000 -0.018624
vn 0.907746 0.419180 0.016909
vn 0.872643 0.488088 0.016255
vn 0.872643 0.488088 0.016255
vn 0.907746 0.419180 0.016909
vn 0.993174 0.115169 0.018500
vn 0.993185 0.115068 0.018500
vn 0.999654 0.018582 0.018621
vn 0.999654 0.018578 0.018621
vn 0.999827 0.000000 0.018624
vn 0.999827 0.000000 0.018624
vn -0.017985 -0.259637 0.965539
vn -0.017985 -0.259637 0.965539
vn -0.996768 0.080288 -0.002774
vn -0.996768 0.080288 -0.002774
vn 0.018609 0.040157 -0.999020
vn 0.018609 0.040157 -0.999020
vn 0.018609 0.040157 -0.999020
vn 0.018609 0.040157 -0.999020
vn -0.972173 -0.233563 -0.018109
vn -0.972173 -0.233563 -0.018109
vn -0.972173 -0.233563 -0.018109
vn -0.972173 -0.233563 -0.018109
vn -0.018524 0.103513 0.994456
vn -0.018524 0.103513 0.994456
vn -0.018524 0.103513 0.994456
vn -0.018524 0.103513 0.994456
vn 0.990478 -0.136428 0.018450
vn 0.990478 -0.136428 0.018450
vn 0.990478 -0.136428 0.018450
vn 0.990478 -0.136428 0.018450
vn -0.180057 -0.968239 0.173471
vn -0.173471 -0.968239 -0.180057
vn 0.180057 -0.968239 -0.173472
vn 0.173471 -0.968239 0.180057
vn 0.253514 -0.935989 -0.244243
vn -0.244242 -0.935989 -0.253514
vn 0.244242 -0.935990 0.253514
vn -0.253514 -0.935990 0.244242
s 1
g Lamp
f 1/9/1 2/10/2 4/11/3 3/12/4
f 4/11/3 6/13/5 5/14/6 3/12/4
f 6/13/5 8/27/7 7/28/8 5/14/6
s 2
f 10/29/9 12/30/10 11/31/11 9/32/12
f 12/30/10 14/33/13 13/34/14 11/31/11
f 14/33/13 16/35/15 15/36/16 13/34/14
s 3
f 4/1/17 2/2/18 16/3/19 14/4/20
f 6/5/21 4/1/17 14/4/20 12/6/22
f 8/7/23 6/5/21 12/6/22 10/8/24
s 4
f 13/15/25 15/16/26 1/17/27 3/18/28
f 11/19/29 13/15/25 3/18/28 5/20/30
f 9/21/31 11/19/29 5/20/30 7/22/32
s 5
f 58/37/33 18/38/34 17/39/35 57/40/36
f 18/38/34 20/41/37 19/42/38 17/39/35
f 20/43/37 22/44/39 21/45/40 19/46/38
f 22/44/39 24/47/41 23/48/42 21/45/40
f 24/47/41 26/119/43 25/120/44 23/48/42
f 26/119/43 28/121/45 27/122/46 25/120/44
f 28/49/45 30/51/47 29/52/48 27/50/46
f 30/51/47 32/53/49 31/54/50 29/52/48
s 6
f 34/55/51 36/56/52 35/57/53 33/58/54
f 36/56/52 38/101/55 37/102/56 35/57/53
f 38/101/55 40/103/57 39/104/58 37/102/56
f 40/105/57 42/106/59 41/123/60 39/124/58
f 42/106/59 44/125/61 43/126/62 41/123/60
f 44/107/61 46/109/63 45/110/64 43/108/62
f 46/109/63 48/111/65 47/112/66 45/110/64
s 7
f 36/23/67 34/24/68 32/25/69 30/26/70
f 38/59/71 36/23/67 30/26/70 28/60/72
f 40/61/73 38/59/71 28/60/72 26/62/74
f 42/63/75 40/61/73 26/62/74 24/64/76
f 44/65/77 42/63/75 24/64/76 22/66/78
f 46/67/79 44/65/77 22/66/78 20/68/80
f 48/69/81 46/67/79 20/68/80 18/70/82
s 8
f 35/71/83 29/72/84 31/73/85 33/74/86
f 37/75/87 27/76/88 29/72/84 35/71/83
f 39/77/89 25/78/90 27/76/88 37/75/87
f 41/79/91 23/80/92 25/78/90 39/77/89
f 43/81/93 21/82/94 23/80/92 41/79/91
f 45/83/95 19/84/96 21/82/94 43/81/93
f 17/85/97 19/84/96 45/83/95 47/86/98
f 59/87/99 57/88/100 17/85/97 47/86/98
s 9
f 50/127/101 52/128/102 51/129/103 49/130/104
f 52/128/102 54/131/105 53/132/106 51/129/103
f 54/131/105 56/133/107 55/134/108 53/132/106
f 56/133/107 58/37/109 57/40/110 55/134/108
s 10
f 60/135/111 62/136/112 61/137/113 59/138/114
f 62/136/112 64/139/115 63/140/116 61/137/113
f 64/139/115 66/141/117 65/142/118 63/140/116
f 66/141/117 68/143/119 67/144/120 65/142/118
s off
f 68/145/121 50/146/122 49/147/123 67/148/124
s 11
f 68/89/125 66/90/126 52/91/127 50/92/128
f 66/90/126 64/93/129 54/94/130 52/91/127
f 64/93/129 62/95/131 56/96/132 54/94/130
f 62/95/131 60/97/133 58/98/134 56/96/132
s 12
f 65/99/135 67/100/136 49/113/137 51/114/138
f 63/115/139 65/99/135 51/114/138 53/116/140
f 61/117/141 63/115/139 53/116/140 55/118/142
f 59/87/143 61/117/141 55/118/142 57/88/144
s 6
f 48/111/65 60/135/145 59/138/146 47/112/66
s 7
f 58/98/147 60/97/148 48/69/81 18/70/82
s off
f 8/27/149 34/55/150 33/58/151 7/28/152
f 32/25/153 34/24/154 8/7/155 10/8/156
f 32/53/157 10/29/158 9/32/159 31/54/160
f 33/74/161 31/73/162 9/21/163 7/22/164
s 13
f 72/157/165 69/158/166 70/159/167 71/160/168
f 16/149/169 70/150/167 69/151/166 15/152/170
f 16/149/169 2/153/171 71/154/168 70/150/167
f 72/155/165 71/154/168 2/153/171 1/156/172
f 15/152/170 69/151/166 72/155/165 1/156/172
