# This file uses centimeters as units for non-parametric coordinates.

g default
v -6.891251 224.923233 -85.174591
v -6.891251 223.973328 -84.885849
v 295.890808 224.923233 -85.174591
v 295.890808 223.973328 -84.885849
v -6.891251 223.341873 -71.760575
v -6.891251 222.485168 -72.262284
v 295.890808 223.341873 -71.760575
v 295.890808 222.485168 -72.262284
v -6.891251 226.098724 -71.836289
v -6.891251 225.148819 -71.547547
v 295.890808 226.098724 -71.836289
v 295.890808 225.148819 -71.547547
v -6.891251 226.730179 -84.961563
v -6.891251 227.586884 -84.459854
v 295.890808 226.730179 -84.961563
v 295.890808 227.586884 -84.459854
vt 0.009932 0.050795
vt 0.990068 0.050795
vt 0.990068 0.009932
vt 0.009932 0.009932
vt 0.009932 0.094433
vt 0.103460 0.120141
vt 0.104447 0.123389
vt 0.990068 0.094433
vt 0.009932 0.050795
vt 0.058585 0.117982
vt 0.060300 0.115053
vt 0.990068 0.050795
vt 0.990068 0.100282
vt 0.009932 0.124160
vt 0.055794 0.129567
vt 0.009932 0.100282
vt 0.056523 0.123389
vt 0.010660 0.117982
vt 0.009932 0.112281
vt 0.990068 0.112281
vt 0.054079 0.132496
vt 0.010919 0.127408
vt 0.055535 0.120141
vt 0.012375 0.115053
vt 0.057856 0.124160
vt 0.103719 0.129567
vt 0.102003 0.132496
vt 0.058843 0.127408
vt 0.990068 0.106432
vt 0.009932 0.106432
vt 0.009932 0.103357
vt 0.990068 0.103357
vt 0.009932 0.091659
vt 0.990068 0.091659
vt 0.009932 0.103357
vt 0.990068 0.103357
vt 0.009932 0.115054
vt 0.990068 0.115054
vt 0.990068 0.091659
vt 0.009932 0.091659
vn 0.000000 -0.993123 -0.117076
vn 0.000000 -0.993123 -0.117076
vn 0.000000 -0.993123 -0.117076
vn 0.000000 -0.993123 -0.117076
vn 0.000000 -0.117083 0.993122
vn 0.000000 -0.117083 0.993122
vn 0.000000 -0.117083 0.993122
vn 0.000000 -0.117083 0.993122
vn 0.000000 0.993123 0.117076
vn 0.000000 0.993123 0.117076
vn 0.000000 0.993123 0.117076
vn 0.000000 0.993123 0.117076
vn 0.000000 0.117083 -0.993122
vn 0.000000 0.117083 -0.993122
vn 0.000000 0.117083 -0.993122
vn 0.000000 0.117083 -0.993122
vn 1.000000 0.000000 0.000000
vn 1.000000 0.000002 0.000000
vn 1.000000 0.000002 0.000000
vn 1.000000 0.000000 0.000000
vn -1.000000 0.000000 0.000000
vn -1.000000 0.000000 0.000000
vn -1.000000 0.000000 0.000000
vn -1.000000 0.000000 0.000000
vn 0.000000 -0.290827 -0.956776
vn 0.000000 -0.290827 -0.956776
vn 0.000000 -0.290827 -0.956776
vn 0.000000 -0.290827 -0.956776
vn 0.000000 -0.505353 0.862913
vn 0.000000 -0.505353 0.862913
vn 0.000000 -0.505353 0.862913
vn 0.000000 -0.505353 0.862913
vn 0.000000 0.290827 0.956776
vn 0.000000 0.290827 0.956776
vn 0.000000 0.290827 0.956776
vn 0.000000 0.290827 0.956776
vn 0.000000 0.505353 -0.862913
vn 0.000000 0.505353 -0.862913
vn 0.000000 0.505353 -0.862913
vn 0.000000 0.505353 -0.862913
vn -1.000000 0.000000 0.000000
vn -1.000000 0.000000 0.000000
vn -1.000000 -0.000000 0.000000
vn -1.000000 -0.000000 0.000000
vn 1.000000 -0.000000 0.000000
vn 1.000000 -0.000000 0.000000
vn 1.000000 -0.000008 0.000000
vn 1.000000 -0.000008 0.000000
s off
g seat Bench
f 2/1/1 4/2/2 8/3/3 6/4/4
f 5/5/5 7/8/6 12/13/7 10/16/8
f 9/9/9 11/12/10 16/39/11 14/40/12
f 13/19/13 15/20/14 3/29/15 1/30/16
s 1
f 4/6/17 3/7/18 7/10/19 8/11/20
s 2
f 10/14/21 13/15/22 1/17/23 5/18/24
s off
f 2/31/25 1/30/26 3/29/27 4/32/28
f 5/5/29 6/33/30 8/34/31 7/8/32
f 9/35/33 10/16/34 12/13/35 11/36/36
f 13/19/37 14/37/38 16/38/39 15/20/40
s 2
f 14/21/41 13/15/22 10/14/21 9/22/42
f 5/18/24 1/17/23 2/23/43 6/24/44
s 1
f 12/25/45 15/26/46 16/27/47 11/28/48
f 7/10/19 3/7/18 15/26/46 12/25/45
