# This file uses centimeters as units for non-parametric coordinates.

g default
v 604.150368 992.587389 0.018066
v 912.249367 992.533373 0.018433
v 912.249367 1211.317858 0.022461
v 604.155495 1211.389879 0.022095
v 0.000000 992.562487 0.017395
v 279.832009 992.573168 0.017700
v 279.834206 1211.372545 0.021729
v 0.000000 1211.359362 0.021423
v 604.127175 -0.000202 0.000732
v 912.249367 -0.000000 0.001099
v 912.249367 837.042589 0.015747
v 604.146706 837.083666 0.015381
v 279.823220 0.000000 0.000366
v 279.830788 837.071825 0.015015
v 0.000000 837.062792 0.014648
v 0.000000 0.000000 0.000000
v -0.000150 1596.281847 -21.021545
v 264.778542 1596.298326 -21.021179
v 279.837624 1619.807116 0.028931
v 0.000000 1619.789293 0.028625
v 589.104836 1596.320421 -21.020813
v 912.249245 1596.221422 -21.020447
v 912.249367 1619.724352 0.029663
v 604.165017 1619.830065 0.029297
v 610.546486 869.096239 -12.716797
v 912.249367 869.053270 -12.716431
v 912.249367 904.339098 0.016968
v 604.148415 904.385668 0.016602
v 0.000174 869.074877 -12.717529
v 292.197976 869.084032 -12.717163
v 279.831276 904.372728 0.016235
v 0.000000 904.363146 0.015869
v 308.239968 1006.456347 -67.414490
v 308.241677 1197.493883 -67.410461
v 591.407937 1006.468737 -67.414185
v 591.412331 1197.509142 -67.410156
v 304.420144 1682.353136 3.191772
v 628.748635 1682.377550 3.192139
v 0.000247 1682.334703 3.191406
v 912.249611 1682.265368 3.192505
v 912.249367 931.296312 19.209290
v 594.503884 931.346605 19.208923
v 261.190896 931.332933 19.208557
v -0.000265 931.322618 19.208191
vt 0.361904 0.588203
vt 0.541399 0.588172
vt 0.708714 0.045731
vt 0.541399 0.715634
vt 0.880889 0.045730
vt 0.361907 0.715676
vt 0.009932 0.588189
vt 0.874124 0.081529
vt 0.723795 0.081529
vt 0.880890 0.009932
vt 0.708714 0.009932
vt 0.723795 0.045730
vt 0.874125 0.045730
vt 0.172959 0.588195
vt 0.172960 0.715665
vt 0.009932 0.715658
vt 0.361890 0.009932
vt 0.541399 0.009932
vt 0.541399 0.497585
vt 0.361902 0.497608
vt 0.172954 0.009932
vt 0.172959 0.497602
vt 0.009932 0.497596
vt 0.009932 0.009932
vt 0.009932 0.939910
vt 0.164189 0.939919
vt 0.172963 0.953615
vt 0.009932 0.953605
vt 0.353138 0.939932
vt 0.541399 0.939875
vt 0.541399 0.953567
vt 0.361912 0.953629
vt 0.365630 0.516259
vt 0.541399 0.516234
vt 0.541399 0.536791
vt 0.361903 0.536818
vt 0.009932 0.516246
vt 0.180164 0.516252
vt 0.172959 0.536810
vt 0.009932 0.536805
vt 0.542957 0.121228
vt 0.542956 0.009932
vt 0.707927 0.009939
vt 0.707929 0.121237
vt 0.187284 0.990054
vt 0.376235 0.990068
vt 0.009932 0.990043
vt 0.541399 0.990003
vt 0.541399 0.552496
vt 0.356284 0.552525
vt 0.162099 0.552517
vt 0.009932 0.552511
vt 0.903724 0.009932
vt 0.903723 0.082300
vt 0.926026 0.077709
vt 0.926027 0.014523
vt 0.880972 0.082300
vt 0.880973 0.009932
vt 0.903276 0.014524
vt 0.903275 0.077709
vn 0.000007 0.114459 0.993428
vn 0.000010 0.069198 0.997603
vn 0.000008 0.035128 0.999383
vn 0.000003 0.042878 0.999080
vn -0.000004 0.066573 0.997782
vn -0.000006 0.117884 0.993027
vn -0.000004 0.043137 0.999069
vn -0.000003 0.034482 0.999405
vn -0.000001 -0.000017 1.000000
vn -0.000001 -0.000017 1.000000
vn 0.000001 0.014483 0.999895
vn -0.000001 0.014538 0.999894
vn -0.000001 -0.000017 1.000000
vn -0.000002 0.014526 0.999894
vn -0.000002 0.014943 0.999888
vn -0.000001 -0.000017 1.000000
vn -0.000001 -0.000014 1.000000
vn -0.000001 0.001148 0.999999
vn 0.000017 -0.271492 0.962441
vn 0.000015 -0.260476 0.965480
vn 0.000000 -0.000210 1.000000
vn -0.000004 0.000001 1.000000
vn -0.000094 -0.280703 0.959795
vn -0.000047 -0.273321 0.961923
vn -0.000002 -0.000085 1.000000
vn -0.000003 0.000014 1.000000
vn -0.000071 -0.457939 0.888983
vn -0.000029 -0.457407 0.889257
vn -0.000001 -0.000011 1.000000
vn -0.000001 0.000164 1.000000
vn 0.000016 -0.458160 0.888870
vn 0.000015 -0.452972 0.891525
vn -0.000001 -0.000021 1.000000
vn -0.000001 -0.000021 1.000000
vn -0.000001 -0.000021 1.000000
vn -0.000001 -0.000021 1.000000
vn 0.921561 -0.000016 0.388234
vn 0.921561 -0.000016 0.388234
vn 0.921561 -0.000016 0.388234
vn 0.921561 -0.000016 0.388234
vn -0.000043 0.979461 0.201635
vn -0.000043 0.979461 0.201635
vn -0.000043 0.979461 0.201635
vn -0.000043 0.979461 0.201635
vn -0.982609 0.000019 0.185685
vn -0.982609 0.000019 0.185685
vn -0.982609 0.000019 0.185685
vn -0.982609 0.000019 0.185685
vn 0.000052 -0.979466 0.201612
vn 0.000052 -0.979466 0.201612
vn 0.000052 -0.979466 0.201612
vn 0.000052 -0.979466 0.201612
vn 0.000002 -0.050504 0.998724
vn -0.000011 -0.050502 0.998724
vn 0.000002 -0.050504 0.998724
vn -0.000020 -0.050501 0.998724
vn 0.000001 -0.000056 1.000000
vn 0.000002 -0.000452 1.000000
vn -0.000002 0.003155 0.999995
vn -0.000002 -0.000026 1.000000
s 1
g Building1_1face
f 1/1/1 2/2/2 3/4/3 4/6/4
f 5/7/5 6/14/6 7/15/7 8/16/8
f 9/17/9 10/18/10 11/19/11 12/20/12
f 13/21/13 14/22/14 15/23/15 16/24/16
f 17/25/17 18/26/18 19/27/19 20/28/20
f 21/29/21 22/30/22 23/31/23 24/32/24
f 25/33/25 26/34/26 27/35/27 28/36/28
f 29/37/29 30/38/30 31/39/31 32/40/32
f 9/17/9 12/20/12 14/22/14 13/21/13
f 28/36/28 31/39/31 30/38/30 25/33/25
s off
f 34/41/33 33/42/34 35/43/35 36/44/36
s 1
f 24/32/24 19/27/19 18/26/18 21/29/21
s off
f 7/57/37 6/58/38 33/59/39 34/60/40
f 6/3/41 1/5/42 35/8/43 33/9/44
f 1/53/45 4/54/46 36/55/47 35/56/48
f 4/10/49 7/11/50 34/12/51 36/13/52
s 1
f 37/45/53 19/27/19 24/32/24 38/46/54
f 20/28/20 19/27/19 37/45/53 39/47/55
f 24/32/24 23/31/23 40/48/56 38/46/54
f 4/6/4 3/4/3 22/30/22 21/29/21
f 8/16/8 7/15/7 18/26/18 17/25/17
f 21/29/21 18/26/18 7/15/7 4/6/4
f 12/20/12 11/19/11 26/34/26 25/33/25
f 15/23/15 14/22/14 30/38/30 29/37/29
f 25/33/25 30/38/30 14/22/14 12/20/12
f 28/36/28 27/35/27 41/49/57 42/50/58
f 42/50/58 43/51/59 31/39/31 28/36/28
f 32/40/32 31/39/31 43/51/59 44/52/60
f 42/50/58 41/49/57 2/2/2 1/1/1
f 6/14/6 43/51/59 42/50/58 1/1/1
f 44/52/60 43/51/59 6/14/6 5/7/5
